<?xml version="1.0" encoding="UTF-8"?>
<svg version="1.1" xmlns="http://www.w3.org/2000/svg" width="500" height="500">
<path d="M0 0 C165 0 330 0 500 0 C500 165 500 330 500 500 C335 500 170 500 0 500 C0 335 0 170 0 0 Z " fill="#FEFEFE" transform="translate(0,0)"/>
<path d="M0 0 C0.64501465 0.32371582 1.2900293 0.64743164 1.95458984 0.98095703 C11.06488123 5.66101531 19.10229347 11.53534506 27 18 C27.7734375 18.63035156 28.546875 19.26070312 29.34375 19.91015625 C51.43321268 38.55876032 67.43097729 68.75778242 70.8059082 97.45654297 C71.2067985 102.70997074 71.18592733 107.97792484 71.18530273 113.24389648 C71.18748415 115.2975759 71.20567893 117.35071236 71.22460938 119.40429688 C71.25806317 127.1532949 70.74245187 134.44040302 69 142 C68.73960937 143.216875 68.47921875 144.43375 68.2109375 145.6875 C64.50975181 160.35388068 58.9225901 174.70078489 50 187 C49.27683594 188.00546875 48.55367187 189.0109375 47.80859375 190.046875 C41.2820566 198.9256159 34.62002165 207.09301922 26 214 C25.50032715 214.40089844 25.0006543 214.80179688 24.48583984 215.21484375 C-0.52777385 235.03168257 -30.78514613 246.13517055 -63 244 C-63.74314453 243.95214355 -64.48628906 243.90428711 -65.25195312 243.85498047 C-76.29564961 243.09252227 -86.50602671 241.65506109 -97 238 C-98.0621875 237.64035156 -99.124375 237.28070313 -100.21875 236.91015625 C-130.84971037 225.86962806 -157.15962828 203.08712857 -172 174 C-176.0576022 164.88568752 -179.22543149 155.58365453 -182 146 C-182.391875 144.783125 -182.78375 143.56625 -183.1875 142.3125 C-187.60352897 124.30868959 -186.86411519 101.78932451 -182 84 C-181.83371094 83.35885254 -181.66742188 82.71770508 -181.49609375 82.05712891 C-176.46502633 62.91578073 -166.63844369 46.12980015 -154 31 C-153.48566406 30.36191406 -152.97132813 29.72382812 -152.44140625 29.06640625 C-137.31907745 10.66552379 -113.77464046 -2.88178709 -91 -9 C-89.98993896 -9.28979736 -89.98993896 -9.28979736 -88.95947266 -9.58544922 C-59.53021216 -17.85968473 -27.11537965 -13.63132072 0 0 Z " fill="#234F87" transform="translate(307,95)"/>
<path d="M0 0 C9.24 0 18.48 0 28 0 C26.875 7.875 26.875 7.875 25.15234375 12.05859375 C24.79462891 12.93837891 24.43691406 13.81816406 24.06835938 14.72460938 C23.69517578 15.61986328 23.32199219 16.51511719 22.9375 17.4375 C22.37192383 18.82098633 22.37192383 18.82098633 21.79492188 20.23242188 C20.87031 22.4912838 19.93855136 24.7469027 19 27 C15.68532105 25.46593371 13.96055229 24.13688367 12 21 C12 20.34 12 19.68 12 19 C-2.89826486 29.18616225 -17.65435423 39.55491945 -32.26904297 50.14404297 C-38.01550209 54.30287687 -43.80293408 58.40039335 -49.60546875 62.48046875 C-54.76568257 66.11455649 -59.88853444 69.79773939 -65 73.5 C-66.4920673 74.57698947 -67.98425474 75.6538125 -69.4765625 76.73046875 C-71.78276713 78.39461075 -74.08573573 80.06265844 -76.38183594 81.74072266 C-78.70693951 83.43969075 -81.04018355 85.12691576 -83.375 86.8125 C-84.08269531 87.33457031 -84.79039062 87.85664063 -85.51953125 88.39453125 C-86.18082031 88.86890625 -86.84210938 89.34328125 -87.5234375 89.83203125 C-88.10013184 90.25202393 -88.67682617 90.6720166 -89.27099609 91.10473633 C-91 92 -91 92 -95 92 C-95.33 75.5 -95.66 59 -96 42 C-107.91775056 48.4172503 -119.80808344 54.85122573 -131.5625 61.5625 C-140.25807523 66.52220955 -149.060831 71.22809157 -157.96411133 75.80371094 C-164.61053143 79.23016579 -171.07281478 82.87131733 -177.453125 86.76953125 C-180 88 -180 88 -183 87 C-184.203125 85.51171875 -184.203125 85.51171875 -185.25 83.6875 C-185.60578125 83.09324219 -185.9615625 82.49898438 -186.328125 81.88671875 C-187.20324842 79.42925007 -186.96720867 78.41443729 -186 76 C-184.06420898 74.55883789 -184.06420898 74.55883789 -181.49609375 73.22265625 C-180.06209229 72.46263306 -180.06209229 72.46263306 -178.59912109 71.68725586 C-177.55578613 71.15108643 -176.51245117 70.61491699 -175.4375 70.0625 C-173.2302863 68.89878348 -171.02326017 67.73471114 -168.81640625 66.5703125 C-167.68219238 65.97766602 -166.54797852 65.38501953 -165.37939453 64.77441406 C-160.18358916 62.04625965 -155.03020558 59.24138655 -149.875 56.4375 C-147.87249513 55.35268128 -145.86989136 54.26804509 -143.8671875 53.18359375 C-137.34508012 49.64729121 -130.83253883 46.09355621 -124.3215332 42.53686523 C-116.2365484 38.1226872 -108.13590507 33.7376133 -100.02929688 29.36328125 C-99.08248047 28.85152344 -98.13566406 28.33976562 -97.16015625 27.8125 C-96.2695752 27.33296875 -95.37899414 26.8534375 -94.46142578 26.359375 C-92.26739542 25.14767484 -90.13423081 23.86898396 -87.99609375 22.5625 C-86.51302734 21.7890625 -86.51302734 21.7890625 -85 21 C-83.515 21.495 -83.515 21.495 -82 22 C-82 37.51 -82 53.02 -82 69 C-69.04627159 59.87579125 -69.04627159 59.87579125 -56.1875 50.625 C-49.83669963 46.01744669 -43.43675725 41.48660116 -37 37 C-27.58906371 30.43898276 -18.2781394 23.74710907 -9 17 C-7.81123201 16.1366718 -6.62243234 15.27338722 -5.43359375 14.41015625 C-2.95441845 12.60855887 -0.47636576 10.80545609 2 9 C1.7834375 8.1646875 1.7834375 8.1646875 1.5625 7.3125 C0.97338812 4.89059562 0.48882408 2.44412042 0 0 Z " fill="#FAFBFC" transform="translate(329,191)"/>
<path d="M0 0 C8.25 0 16.5 0 25 0 C25.2941951 13.12632369 25.53246883 26.2504442 25.67355824 39.37932396 C25.74128975 45.47630046 25.83308012 51.57089719 25.98071289 57.66650391 C26.12240909 63.55412622 26.1997822 69.43946664 26.23340416 75.32866287 C26.2573486 77.57037914 26.30411298 79.81197611 26.37449074 82.0527153 C26.88931208 99.12973798 26.88931208 99.12973798 23.75362778 103.89350128 C20.35506429 107.49052491 16.36248697 109.69611285 12 112 C10.08471674 113.3477756 8.18475849 114.71806817 6.3125 116.125 C2.26497696 119 2.26497696 119 0 119 C0 79.73 0 40.46 0 0 Z " fill="#FAFBFC" transform="translate(281,111)"/>
<path d="M0 0 C8.25 0 16.5 0 25 0 C25 26.07 25 52.14 25 79 C2.25 92 2.25 92 0 92 C0 61.64 0 31.28 0 0 Z " fill="#FBFCFD" transform="translate(214,131)"/>
<path d="M0 0 C8.25 0 16.5 0 25 0 C25 22.77 25 45.54 25 69 C1 82 1 82 0 82 C0 54.94 0 27.88 0 0 Z " fill="#487EC4" transform="translate(182,159)"/>
<path d="M0 0 C8.25 0 16.5 0 25 0 C25.38613668 8.26786783 25.69699113 16.52859725 25.88080692 24.80309677 C25.96909501 28.64674597 26.08843562 32.48385132 26.2824707 36.32373047 C27.50301848 61.1061906 27.50301848 61.1061906 23.34100342 67.58081055 C18.92504965 72.09213479 13.79468125 74.67676332 8 77 C6.6610044 77.65521981 5.32594854 78.31876385 4 79 C3.98541748 77.77369873 3.97083496 76.54739746 3.95581055 75.28393555 C3.89787917 70.73822734 3.82064619 66.19301719 3.73754883 61.64770508 C3.70427514 59.67968829 3.67625085 57.71157551 3.65356445 55.7434082 C3.62006322 52.91576188 3.56775037 50.08899718 3.51171875 47.26171875 C3.50532883 46.38037766 3.4989389 45.49903656 3.49235535 44.59098816 C3.47256119 43.77036392 3.45276703 42.94973969 3.43237305 42.10424805 C3.42126999 41.38254929 3.41016693 40.66085052 3.39872742 39.9172821 C2.89170472 37.47926177 1.74761989 36.71406947 0 35 C-0.26156261 32.27093638 -0.34921131 29.7753901 -0.29296875 27.05078125 C-0.28872391 26.27816452 -0.28447906 25.50554779 -0.28010559 24.70951843 C-0.26332183 22.24349008 -0.22567147 19.77828104 -0.1875 17.3125 C-0.17245271 15.63998577 -0.15876438 13.96745872 -0.14648438 12.29492188 C-0.11597165 8.19604553 -0.05725368 4.09893904 0 0 Z " fill="#487DC3" transform="translate(247,173)"/>
<path d="M0 0 C8 0 8 0 9.81030273 1.34521484 C10.18098877 1.96090332 10.5516748 2.5765918 10.93359375 3.2109375 C11.56491211 4.21253906 11.56491211 4.21253906 12.20898438 5.234375 C12.61439453 5.94078125 13.01980469 6.6471875 13.4375 7.375 C13.86998047 8.07367188 14.30246094 8.77234375 14.74804688 9.4921875 C16.26066404 11.95403704 17.70767611 14.41535223 19 17 C19.33 11.39 19.66 5.78 20 0 C22.64 0 25.28 0 28 0 C28 10.23 28 20.46 28 31 C20 31 20 31 18.08203125 29.53125 C17.66308594 28.8609375 17.24414062 28.190625 16.8125 27.5 C16.34199219 26.778125 15.87148438 26.05625 15.38671875 25.3125 C14.92910156 24.549375 14.47148437 23.78625 14 23 C13.51144531 22.236875 13.02289063 21.47375 12.51953125 20.6875 C11.32106425 18.80755177 10.15704525 16.90572159 9 15 C8.67 20.28 8.34 25.56 8 31 C5.36 31 2.72 31 0 31 C0 20.77 0 10.54 0 0 Z " fill="#2A548B" transform="translate(264,358)"/>
<path d="M0 0 C2.866875 -0.0825 5.73375 -0.165 8.6875 -0.25 C9.58170654 -0.28641602 10.47591309 -0.32283203 11.3972168 -0.36035156 C15.44692845 -0.41666694 17.50103852 -0.31241573 21.01953125 1.890625 C23.59919138 4.63819201 23.96222859 5.49952886 24.25 9.3125 C23.98368917 13.24058469 23.43481646 14.95647943 21 18 C16.70011821 20.67815913 12.94202718 20.14535374 8 20 C8 23.63 8 27.26 8 31 C5.36 31 2.72 31 0 31 C0 20.77 0 10.54 0 0 Z " fill="#2C568C" transform="translate(212,358)"/>
<path d="M0 0 C3.12771462 -0.4906219 5.89647475 -0.70581845 9 0 C11.28928569 2.38336593 12.66469366 4.99388321 14 8 C14.25652344 7.4225 14.51304687 6.845 14.77734375 6.25 C16.01429722 3.85105994 17.12566749 1.95135987 19 0 C22.10352525 -0.70581845 24.87228538 -0.4906219 28 0 C26.10828458 3.96455253 24.2425247 7.65915447 21.6875 11.25 C19.80167706 13.71828833 19.80167706 13.71828833 20.140625 15.78515625 C21.35236841 18.9081495 23.16145852 21.43484559 25.0625 24.1875 C29 29.91036907 29 29.91036907 29 31 C25.86777159 31.50115655 23.11209905 31.68820402 20 31 C17.44649143 28.64767696 15.71118512 26.00631739 14 23 C12.43135523 25.04568469 11.01800803 26.96587952 9.8125 29.25 C7.59251403 31.39343473 6.81573615 31.25 3.8125 31.25 C2.554375 31.1675 1.29625 31.085 0 31 C1.63133282 26.48001443 3.98748087 23.09627837 6.85546875 19.28125 C8.20136251 17.05868034 8.20136251 17.05868034 7.8984375 14.54296875 C6.83262932 11.52626821 5.35335055 9.37083781 3.4375 6.8125 C0 2.19919517 0 2.19919517 0 0 Z " fill="#29548B" transform="translate(180,358)"/>
<path d="M0 0 C3.74030185 1.60298651 4.73158465 2.59737698 7 6 C7 6.99 7 7.98 7 9 C4.03 9 1.06 9 -2 9 C-2.33 8.34 -2.66 7.68 -3 7 C-5.52733235 6.34444881 -5.52733235 6.34444881 -8 6 C-7.95426591 7.9170357 -7.95426591 7.9170357 -7 10 C-4.30818925 11.73338749 -4.30818925 11.73338749 -1.0625 13.125 C4.8410596 15.8410596 4.8410596 15.8410596 7 18 C7.47458497 22.19216724 7.45614786 24.30057329 5.125 27.875 C1.99960513 31.00039487 0.07913627 31.22123286 -4.25 31.375 C-8.10362785 31.3446166 -10.61355821 31.15312956 -13.6875 28.75 C-16 26 -16 26 -16 22 C-13.36 22 -10.72 22 -8 22 C-7.67 22.66 -7.34 23.32 -7 24 C-5.35 24 -3.7 24 -2 24 C-2.12383463 22.04492906 -2.12383463 22.04492906 -3 20 C-5.20761975 18.74791249 -5.20761975 18.74791249 -7.875 17.9375 C-13.82010731 15.91824343 -13.82010731 15.91824343 -16 13 C-16.61582155 8.22738297 -16.68107227 6.12729203 -14.1875 2 C-9.52322747 -0.92660237 -5.36675307 -0.7505384 0 0 Z " fill="#2A558B" transform="translate(313,358)"/>
<path d="M0 0 C6.6 0 13.2 0 20 0 C20 1.98 20 3.96 20 6 C16.04 6 12.08 6 8 6 C8 7.98 8 9.96 8 12 C11.3 12 14.6 12 18 12 C18 13.98 18 15.96 18 18 C14.7 18 11.4 18 8 18 C8 20.31 8 22.62 8 25 C11.96 25 15.92 25 20 25 C20 26.98 20 28.96 20 31 C13.4 31 6.8 31 0 31 C0 20.77 0 10.54 0 0 Z " fill="#2D578D" transform="translate(324,358)"/>
<path d="M0 0 C6.27 0 12.54 0 19 0 C19 1.98 19 3.96 19 6 C15.37 6 11.74 6 8 6 C8 7.98 8 9.96 8 12 C11.3 12 14.6 12 18 12 C18 13.98 18 15.96 18 18 C14.7 18 11.4 18 8 18 C8 20.31 8 22.62 8 25 C11.63 25 15.26 25 19 25 C19 26.98 19 28.96 19 31 C12.73 31 6.46 31 0 31 C0 20.77 0 10.54 0 0 Z " fill="#28538A" transform="translate(240,358)"/>
<path d="M0 0 C6.27 0 12.54 0 19 0 C19 1.98 19 3.96 19 6 C15.37 6 11.74 6 8 6 C8 7.98 8 9.96 8 12 C11.3 12 14.6 12 18 12 C18 13.98 18 15.96 18 18 C14.7 18 11.4 18 8 18 C8 20.31 8 22.62 8 25 C11.63 25 15.26 25 19 25 C19 26.98 19 28.96 19 31 C12.73 31 6.46 31 0 31 C0 20.77 0 10.54 0 0 Z " fill="#275289" transform="translate(157,358)"/>
<path d="M0 0 C7.875 0 7.875 0 11 3 C10.06666667 7.8 10.06666667 7.8 9.3125 10.0625 C8.90127473 12.61209669 9.68654362 13.83666008 11 16 C10.01 16 9.02 16 8 16 C6.98133771 14.34467377 5.98189187 12.67739862 5 11 C4.01 10.67 3.02 10.34 2 10 C2 11.98 2 13.96 2 16 C1.34 16 0.68 16 0 16 C0 10.72 0 5.44 0 0 Z " fill="#5476A2" transform="translate(203,396)"/>
<path d="M0 0 C6.0546875 -0.1953125 6.0546875 -0.1953125 8 0 C8.66 0.66 9.32 1.32 10 2 C9.67522529 4.4682878 9.09904687 6.70285939 8.3125 9.0625 C7.90127473 11.61209669 8.68654362 12.83666008 10 15 C8.0625 14.25 8.0625 14.25 6 13 C5.25 10.875 5.25 10.875 5 9 C4.01 9 3.02 9 2 9 C2 10.98 2 12.96 2 15 C1.34 15 0.68 15 0 15 C0 10.05 0 5.1 0 0 Z " fill="#375E92" transform="translate(305,397)"/>
<path d="M0 0 C1.32 0 2.64 0 4 0 C4.67467562 1.74692795 5.33944156 3.49768525 6 5.25 C6.556875 6.71179688 6.556875 6.71179688 7.125 8.203125 C8 11 8 11 8 15 C7.34 15 6.68 15 6 15 C6 14.01 6 13.02 6 12 C3.36 12 0.72 12 -2 12 C-2 12.99 -2 13.98 -2 15 C-2.99 14.67 -3.98 14.34 -5 14 C-3.35 9.38 -1.7 4.76 0 0 Z " fill="#3F6596" transform="translate(227,397)"/>
<path d="M0 0 C2.64 0 5.28 0 8 0 C8 0.66 8 1.32 8 2 C6.02 2 4.04 2 2 2 C2 3.65 2 5.3 2 7 C3.98 7 5.96 7 8 7 C8 7.66 8 8.32 8 9 C6.02 9 4.04 9 2 9 C2 10.65 2 12.3 2 14 C4.31 14 6.62 14 9 14 C9 14.66 9 15.32 9 16 C6.03 16 3.06 16 0 16 C0 10.72 0 5.44 0 0 Z " fill="#4A6E9C" transform="translate(287,396)"/>
<path d="M0 0 C2 1.5 2 1.5 3 3 C2.01 3.33 1.02 3.66 0 4 C0 3.34 0 2.68 0 2 C-2.91652174 1.83318891 -2.91652174 1.83318891 -6 2 C-8.39564928 3.94967279 -8.39564928 3.94967279 -8.1875 7.5625 C-8.39287806 10.82963695 -8.39287806 10.82963695 -7 12 C-3.05163095 12.2632246 -0.39620731 12.08997373 3 10 C1.25 13.875 1.25 13.875 -1 15 C-4.50337981 15.38080215 -6.36278626 15.40245078 -9.375 13.5 C-11.80664499 9.75900771 -11.49174842 7.42573582 -11 3 C-8.90756817 -1.18486366 -4.12326496 -0.67003056 0 0 Z " fill="#3D6395" transform="translate(255,397)"/>
<path d="M0 0 C0.66 0 1.32 0 2 0 C2.33 1.65 2.66 3.3 3 5 C4.32 3.35 5.64 1.7 7 0 C7.99 0.33 8.98 0.66 10 1 C8.35 2.65 6.7 4.3 5 6 C6.49836105 9.11198065 8.19933758 12.0534615 10 15 C7.11562221 13.70700306 5.12780579 12.34058637 3 10 C2.67 11.65 2.34 13.3 2 15 C1.34 15 0.68 15 0 15 C0 10.05 0 5.1 0 0 Z " fill="#3A6194" transform="translate(268,397)"/>
<path d="M0 0 C2.33294775 -0.04241723 4.66702567 -0.04092937 7 0 C8 1 8 1 8.0625 4.0625 C8.041875 5.031875 8.02125 6.00125 8 7 C5.29120665 8.35439668 2.99066732 8.06501451 0 8 C0 5.36 0 2.72 0 0 Z " fill="#F2F5F8" transform="translate(220,364)"/>
<path d="M0 0 C3.3 0 6.6 0 10 0 C9.01 0.33 8.02 0.66 7 1 C7 5.62 7 10.24 7 15 C6.01 15 5.02 15 4 15 C4 10.38 4 5.76 4 1 C2.68 0.67 1.36 0.34 0 0 Z " fill="#5B7BA6" transform="translate(184,397)"/>
<path d="M0 0 C0.66 0 1.32 0 2 0 C1.06666667 4.8 1.06666667 4.8 0.3125 7.0625 C-0.09872527 9.61209669 0.68654362 10.83666008 2 13 C1.01 13 0.02 13 -1 13 C-2.5625 10.625 -2.5625 10.625 -4 8 C-4.66 7.34 -5.32 6.68 -6 6 C-5.38125 5.7525 -4.7625 5.505 -4.125 5.25 C-1.64931313 3.79371361 -1.04874998 2.62187494 0 0 Z " fill="#4A6E9D" transform="translate(212,399)"/>
<path d="M0 0 C1.65 0 3.3 0 5 0 C5.38218767 1.65614657 5.71395102 3.32457024 6 5 C5 6 5 6 2.4375 6.0625 C1.2309375 6.0315625 1.2309375 6.0315625 0 6 C0 4.02 0 2.04 0 0 Z " fill="#E2E8EF" transform="translate(205,398)"/>
<path d="M0 0 C2.475 0.495 2.475 0.495 5 1 C5.5625 2.9375 5.5625 2.9375 6 5 C5 6 5 6 2.4375 6.0625 C1.2309375 6.0315625 1.2309375 6.0315625 0 6 C0 4.02 0 2.04 0 0 Z " fill="#EFF2F6" transform="translate(307,398)"/>
<path d="M0 0 C0.66 0 1.32 0 2 0 C2.66 1.98 3.32 3.96 4 6 C2.02 6 0.04 6 -2 6 C-1.34 4.02 -0.68 2.04 0 0 Z " fill="#E4E9F0" transform="translate(228,401)"/>
<path d="M0 0 C0.66 0 1.32 0 2 0 C0.25 3.875 0.25 3.875 -2 5 C-3.99960012 5.039992 -6.00047242 5.04346799 -8 5 C-7 3 -7 3 -4 1.9375 C-2.515 1.4734375 -2.515 1.4734375 -1 1 C-0.67 0.67 -0.34 0.34 0 0 Z " fill="#466B9A" transform="translate(256,407)"/>
<path d="M0 0 C2 2 2 2 2 6 C1.34 6 0.68 6 0 6 C0 5.01 0 4.02 0 3 C-2.31 3 -4.62 3 -7 3 C-7 2.67 -7 2.34 -7 2 C-4.69 1.34 -2.38 0.68 0 0 Z " fill="#5476A2" transform="translate(233,406)"/>
</svg>
